<svg width="239" height="155" viewBox="0 0 239 155" fill="none" xmlns="http://www.w3.org/2000/svg">
    <g clip-path="url(#clip0_46_3)">
        <rect width="238.14" height="154.98" transform="translate(238.14 154.98) rotate(-180)"
            fill="white" />
        <rect x="232.14" y="149.42" width="226" height="143" rx="10"
            transform="rotate(-180 232.14 149.42)" stroke="#6FB0FF" stroke-width="10" />
        <text transform="translate(85 77) rotate(90)" fill="black" xml:space="preserve"
            style="white-space: pre" font-family="Jolly Lodger" font-size="14" letter-spacing="0em"><tspan x="28.0947" y="14.9971">This one sparks joy</tspan></text>
        <text transform="translate(70 77) rotate(90)" fill="black" xml:space="preserve"
            style="white-space: pre" font-family="Jolly Lodger" font-size="14" letter-spacing="0em"><tspan x="28.0947" y="14.9971">This one sparks joy</tspan></text>
        <text transform="translate(55 77) rotate(90)" fill="black" xml:space="preserve"
            style="white-space: pre" font-family="Jolly Lodger" font-size="14" letter-spacing="0em"><tspan x="28.0947" y="14.9971">This one sparks joy</tspan></text>
        <text transform="translate(200.56 31.42) rotate(-180)" fill="#FFC800" xml:space="preserve"
            style="white-space: pre" font-family="Jolly Lodger" font-size="11"
            letter-spacing="0.06em"><tspan x="0.392696" y="10.4263">OVERHANG</tspan></text>
        <circle cx="213.56" cy="25.42" r="10" transform="rotate(90 213.56 25.42)" fill="#FFC800" />
        <path
            d="M217.59 23.3148C217.59 23.7347 217.18 24.3447 217.06 24.5433C216.941 24.7422 216.142 25.4905 215.294 25.9466C214.561 26.3404 213.434 26.7452 213.406 26.7552C213.406 26.7552 213.267 26.8172 213.199 26.847C213.167 26.8613 213.134 26.8764 213.1 26.891C212.494 27.1561 211.756 27.4786 211.516 28.2162L211.512 28.2308C211.379 28.6386 211.038 29.6857 211.416 30.9271C211.649 31.6934 211.945 32.2693 212.692 32.5648C213.079 32.7177 213.602 32.9503 214.234 33.2308C215.128 33.6277 216.24 34.1194 217.485 34.6195C216.28 35.1343 214.954 35.4202 213.56 35.4203C208.038 35.4203 203.56 30.943 203.56 25.4203C203.56 22.3848 204.914 19.6673 207.05 17.8334C207.054 17.8352 207.057 17.8374 207.061 17.8392C209.698 19.0414 211.402 19.5325 212.434 19.8304C212.675 19.8997 212.879 19.9591 213.05 20.014C213.296 20.0931 213.574 20.1647 213.874 20.2425C214.713 20.4604 215.724 20.7241 216.704 21.3089C217.041 21.5102 217.298 21.8054 217.427 22.2064C217.555 22.6073 217.59 22.9774 217.59 23.3148Z"
            fill="#3C94FF" />
        <path fill-rule="evenodd" clip-rule="evenodd"
            d="M223.56 25.4203C223.56 30.9429 219.083 35.42 213.56 35.4203C208.038 35.4203 203.561 30.943 203.56 25.4203C203.56 22.6719 204.669 20.1829 206.464 18.3753C207.856 18.767 209.423 19.3442 210.749 19.8343C211.414 20.08 212.018 20.3035 212.511 20.4701C213.506 20.8067 214.618 21.2495 215.69 21.68C215.853 21.7453 216.035 21.8024 216.205 21.8431C220.365 22.8364 222.445 23.5381 223.227 24.0003C223.308 24.025 223.388 24.0495 223.469 24.0746C223.528 24.5147 223.56 24.9639 223.56 25.4203ZM220.653 26.0736C220.82 25.5474 220.529 24.9851 220.003 24.8177C219.477 24.6508 218.914 24.9421 218.747 25.4681C218.148 27.3519 217.574 28.6036 217.061 29.4222C216.547 30.2435 216.129 30.5723 215.864 30.7015C215.405 30.9247 215.145 30.722 214.559 30.4476C214.236 30.2959 213.851 30.0148 213.348 29.5931C212.894 29.2132 212.272 28.6557 211.674 28.1703C210.414 27.1491 208.812 26.0621 206.729 25.6654C206.187 25.5622 205.663 25.9188 205.559 26.4613C205.456 27.0036 205.813 27.5268 206.355 27.6302C207.956 27.9353 209.249 28.7787 210.414 29.723C211.027 30.2201 211.5 30.6546 212.063 31.1263C212.577 31.5562 213.132 31.987 213.71 32.2582C213.939 32.3658 215.234 33.2326 216.74 32.4994C217.457 32.1501 218.125 31.4932 218.757 30.4847C219.39 29.4733 220.025 28.049 220.653 26.0736Z"
            fill="#3C94FF" />
        <path
            d="M221.483 31.5175C219.655 33.8898 216.787 35.4198 213.56 35.4198C208.141 35.4198 203.732 31.1091 203.568 25.7294C203.999 25.8284 204.323 25.9079 204.58 25.9716C204.89 26.0485 205.102 26.1009 205.286 26.1327C205.395 26.1516 205.5 26.171 205.602 26.1903L205.64 26.1981C206.33 26.3294 206.879 26.4332 207.642 26.1083C208.254 25.8478 209.068 25.3997 209.433 24.7177C209.505 24.5829 209.58 24.4386 209.654 24.2929C209.94 23.7315 210.25 23.1241 210.636 22.7421C211.204 22.1813 211.915 21.8327 212.568 21.5126C212.647 21.4736 212.726 21.4349 212.803 21.3964C213.297 21.1508 213.636 20.8615 213.935 20.6063C214.297 20.2979 214.601 20.0387 215.053 19.9638C216.225 19.7697 218.259 19.5533 218.858 19.9667C219.141 20.162 219.45 20.383 219.535 20.6835C219.796 21.6038 219.799 22.9432 219.488 23.4413C219.323 23.7064 219.162 23.9507 219.004 24.1923C218.881 24.3791 218.76 24.5647 218.638 24.7567C218.636 24.7598 218.633 24.7624 218.631 24.7655C218.626 24.7737 218.621 24.7828 218.616 24.7909C218.528 24.9295 218.44 25.0723 218.351 25.2216C218.267 25.3629 218.18 25.5042 218.093 25.6464L218.012 25.7792L217.991 25.8153L217.94 25.9003C217.717 26.2683 217.496 26.6448 217.301 27.0448C216.951 27.7652 216.322 29.6603 216.955 30.2792C217.043 30.3658 217.168 30.4199 217.305 30.4745C218.455 30.9337 220.451 31.3844 221.154 31.4726C221.265 31.4865 221.375 31.501 221.483 31.5175Z"
            fill="#3C94FF" />
        <path fill-rule="evenodd" clip-rule="evenodd"
            d="M223.551 25.8088C223.346 31.1513 218.953 35.4199 213.56 35.4202C208.038 35.4202 203.561 30.9429 203.56 25.4202C203.56 23.4835 204.112 21.6763 205.065 20.1448C206.658 20.6166 208.112 21.0503 209.344 21.4133C213.707 22.6996 213.169 22.626 212.986 22.6008C212.941 22.5946 212.918 22.5912 212.997 22.6125C213.009 22.6126 213.359 22.616 213.88 22.7883C214.167 22.8833 214.37 22.9271 214.592 22.9748C214.78 23.0153 214.982 23.0585 215.262 23.1389C216.477 23.4884 217.322 23.721 217.982 23.9026C219.642 24.3592 220.132 24.494 222.401 25.3567C222.766 25.4952 223.153 25.6486 223.551 25.8088ZM214.668 27.9036C214.642 27.8123 214.596 27.7323 214.499 27.6067C214.496 27.5333 214.485 27.4298 214.45 27.302C214.332 26.8665 213.701 26.7511 212.884 26.6995C212.595 26.6812 212.397 26.8485 212.197 26.9983C211.98 27.1608 211.895 27.5818 211.928 28.0823C211.949 28.3994 212.261 28.6512 212.677 28.9016C213.552 29.429 214.098 28.8216 214.482 28.5715C214.633 28.3887 214.701 28.1535 214.668 27.9036Z"
            fill="#3C94FF" />
        <path
            d="M222.796 29.2589C221.29 32.8763 217.723 35.4199 213.56 35.42C208.037 35.42 203.56 30.9429 203.56 25.42C203.56 24.4193 203.71 23.4537 203.983 22.5421C204.21 22.5709 204.338 22.5946 204.437 22.6134C204.472 22.62 204.503 22.6258 204.534 22.6319C204.854 22.721 205.114 22.7774 205.348 22.8282C205.544 22.8706 205.721 22.9089 205.9 22.9591C206.368 23.0908 207.293 23.1628 207.77 23.3146C209.251 23.7857 208.122 23.3149 209.525 23.5665C210.077 23.6654 209.876 23.4907 210.578 23.6661C210.7 23.6969 210.929 23.8409 211.104 23.8409C211.251 23.8409 211.474 23.8365 211.614 23.8712C211.627 23.8744 211.64 23.8776 211.654 23.881C211.945 23.9522 212.445 24.0755 212.508 24.5548C212.537 24.7715 212.505 24.6898 212.507 24.8937C212.507 25.5953 212.682 25.2451 213.209 25.5958C214.246 26.1566 215.208 26.3794 215.49 26.4728C215.814 26.5799 217.651 27.1758 218.823 27.7003C219.703 28.0943 219.543 27.7793 220.578 28.2267C220.791 28.319 221.688 28.8236 221.981 28.9288C222.129 28.9819 222.422 29.103 222.796 29.2589Z"
            fill="#3C94FF" />
        <path
            d="M222.853 29.1135C221.383 32.8077 217.778 35.4202 213.56 35.4202C208.448 35.4202 204.235 31.5831 203.636 26.6321C203.896 26.6111 204.12 26.5775 204.315 26.5295C204.499 26.4842 204.655 26.4643 204.788 26.4475C205.004 26.4205 205.164 26.4004 205.301 26.2913C205.449 26.1739 205.618 26.0352 205.803 25.884C207.017 24.8912 208.909 23.3443 209.962 23.5374C210.093 23.5612 210.232 23.5827 210.375 23.6047C210.944 23.6919 211.59 23.7902 212.08 24.1077C212.284 24.2397 212.495 24.3617 212.705 24.4836C213.142 24.7362 213.583 24.9907 213.977 25.344C214.067 25.4248 214.158 25.5089 214.25 25.594C214.675 25.9849 215.125 26.4002 215.632 26.6506C216.08 26.872 216.46 27.1015 216.793 27.303C217.106 27.492 217.378 27.6566 217.628 27.7668C217.827 27.8544 218.018 28.0004 218.21 28.1477C218.488 28.36 218.769 28.575 219.081 28.6213C219.314 28.6559 219.696 28.6972 220.12 28.7434C220.577 28.7934 221.084 28.8492 221.502 28.9065C221.594 28.919 221.69 28.9302 221.79 28.9426C222.102 28.981 222.454 29.0277 222.853 29.1135Z"
            fill="#3C94FF" />
        <path
            d="M223.56 25.42C223.56 26.602 223.354 27.7357 222.978 28.7882C222.717 28.7401 222.62 28.7665 221.897 28.5372L221.591 28.4405C220.203 28.0153 220.905 28.3636 219.567 28.0401L219.325 27.9855C218.214 27.7579 218.529 28.1658 217.401 27.9913C215.995 27.7737 216.655 27.5304 215.288 27.4269C214.164 27.3418 215.741 27.5896 214.489 27.5187C214.254 27.5053 213.622 27.4085 212.739 27.2599L212.57 27.2345C212.137 27.1759 211.464 27.1205 211.028 27.044L210.883 27.0148C210.571 26.9445 210.439 26.8593 210.025 26.7853L209.834 26.7462C209.364 26.6413 208.737 26.4458 208.292 26.3653L207.295 26.1798C206.928 26.1105 206.559 26.0404 206.288 25.9913L206.079 25.9562C205.562 25.8769 204.857 25.8064 204.41 25.7257C203.243 25.562 204.325 25.7556 203.824 25.6661C203.728 25.6489 203.643 25.6271 203.565 25.6056C203.564 25.5438 203.56 25.482 203.56 25.42C203.56 23.2971 204.223 21.3301 205.352 19.711C205.469 19.7394 205.572 19.7669 205.665 19.7892C206.027 19.8758 206.223 19.9236 206.409 19.9835C206.94 20.1546 207.426 20.3547 207.966 20.5772C209.279 21.1191 210.913 21.7933 214.304 22.4991C215.019 22.6479 215.832 22.7721 216.695 22.9044C218.889 23.2405 221.416 23.6273 223.524 24.5939C223.547 24.8663 223.56 25.1418 223.56 25.42Z"
            fill="#3C94FF" />
        <path
            d="M222.71 29.4562C222.391 30.1783 221.989 30.8554 221.517 31.4757C221.507 31.4762 221.497 31.4771 221.487 31.4776C221.234 31.4907 220.574 31.4273 219.658 31.3087C219.262 31.2573 218.754 31.2756 218.33 31.2862C217.866 31.2979 217.47 31.3028 217.173 31.2589C216.319 31.1325 215.574 31.0971 214.983 31.089C214.69 31.0849 214.432 31.0875 214.226 31.089C214.009 31.0905 213.87 31.0903 213.78 31.0841C213.484 31.0634 213.254 30.9579 212.936 30.7755C212.63 30.6008 212.199 30.3247 211.638 30.1769L211.568 30.1583L211.497 30.1544C210.649 30.1086 210.374 30.1498 210.156 30.1661C210.039 30.1749 209.924 30.1827 209.232 30.0519C208.989 30.0057 208.841 29.8775 208.564 29.5714C208.309 29.2882 207.91 28.8033 207.218 28.5987C206.297 28.3266 205.722 28.4988 205.293 28.6007C205.099 28.6468 204.967 28.6698 204.818 28.6632C204.672 28.6567 204.468 28.6188 204.163 28.4825C204.115 28.4612 204.067 28.4431 204.021 28.4249C203.81 27.7561 203.669 27.0572 203.604 26.336C203.635 26.3426 203.668 26.3515 203.701 26.3575C203.762 26.3684 203.802 26.3751 203.824 26.379C203.831 26.3801 203.85 26.3836 203.865 26.3858C203.868 26.3863 203.874 26.387 203.88 26.3878C203.885 26.3884 203.899 26.3895 203.918 26.3907C203.926 26.3913 203.947 26.393 203.974 26.3927C203.987 26.3924 204.021 26.3905 204.04 26.3888C204.044 26.3883 204.048 26.3867 204.053 26.3858L204.312 26.421C204.587 26.4693 204.936 26.5141 205.259 26.5548C205.606 26.5986 205.926 26.6388 206.163 26.6817C206.431 26.7303 206.796 26.7997 207.164 26.8692C207.53 26.9383 207.899 27.0073 208.167 27.0558C208.387 27.0956 208.671 27.1711 208.989 27.256C209.288 27.3357 209.627 27.4265 209.901 27.4757C210.092 27.5098 210.202 27.5449 210.329 27.586C210.472 27.6324 210.644 27.6892 210.907 27.7355C211.182 27.7838 211.532 27.8225 211.842 27.8565C212.169 27.8925 212.445 27.9224 212.623 27.9522C213.487 28.0977 214.167 28.2038 214.45 28.2198C214.612 28.229 214.739 28.2333 214.836 28.2335C214.884 28.2336 214.933 28.2326 214.979 28.2296C215.017 28.227 215.086 28.2209 215.161 28.2013C215.195 28.1925 215.259 28.1734 215.33 28.1349C215.591 28.1577 215.734 28.184 215.816 28.2062C215.89 28.2258 215.923 28.2423 215.989 28.2794C216.078 28.3288 216.218 28.4111 216.438 28.4884C216.65 28.5624 216.917 28.6264 217.294 28.6847C217.632 28.737 217.89 28.7482 218.112 28.7286C218.331 28.7093 218.503 28.6587 218.579 28.6398C218.645 28.6234 218.692 28.6143 218.783 28.6173C218.892 28.621 219.076 28.6429 219.402 28.7218C219.772 28.8111 220.012 28.8562 220.193 28.879C220.37 28.9012 220.511 28.902 220.556 28.9044C220.634 28.9087 220.78 28.9182 221.685 29.2052C222.287 29.3964 222.509 29.4278 222.71 29.4562Z"
            fill="#3C94FF" />
        <path
            d="M220.95 32.1554C219.121 34.1609 216.488 35.42 213.56 35.42C209.409 35.4199 205.849 32.8904 204.337 29.2892C205.381 29.5744 205.703 28.9376 206.886 29.2355L207.02 29.2716C207.963 29.5509 208.114 30.5543 209.103 30.7413C210.511 31.0078 209.858 30.7682 211.459 30.8546C212.36 31.092 212.81 31.7203 213.732 31.7843C214.189 31.8159 215.293 31.7252 216.77 31.9122L217.07 31.9532C217.76 32.0553 218.772 31.9364 219.438 31.9913L219.567 32.005C220.103 32.0744 220.582 32.1264 220.95 32.1554Z"
            fill="#3C94FF" />
        <path
            d="M223.062 28.5341C221.753 32.5317 217.995 35.4198 213.56 35.4198C208.129 35.4196 203.713 31.0906 203.567 25.6952C203.877 25.7872 204.187 25.8774 204.494 25.9716C206.878 26.7032 208.978 26.8337 212.648 26.9872C215.115 27.0903 216.94 27.4412 218.42 27.5946C219.796 27.7374 221.52 28.2152 223.062 28.5341Z"
            fill="#3C94FF" />
        <path
            d="M223.56 25.4198C223.56 25.5953 223.556 25.77 223.547 25.9432C217.13 25.2454 212.459 24.178 209.678 23.4989C208.53 23.2187 206.296 23.1368 203.857 22.9989C204.94 18.6463 208.872 15.42 213.56 15.4198C219.082 15.4198 223.559 19.8971 223.56 25.4198Z"
            fill="#3C94FF" />
    </g>
    <defs>
        <clipPath id="clip0_46_3">
            <rect width="238.14" height="154.98" fill="white"
                transform="translate(238.14 154.98) rotate(-180)" />
        </clipPath>
    </defs>
</svg>